<svg xmlns="http://www.w3.org/2000/svg" viewBox="0 0 32 32">
  <path d="M22.3 5.2c-.1-.5-.5-.8-1-.8h-.1l-1.6.1c-.3-1-1-1.9-2.1-1.9h-.3C16.6 1.8 15.7 1.5 15 1.5c-3.2 0-4.7 4-5.2 6l-2.2.7c-.7.2-.7.2-.8.9L5 22.5l12.6 2.2 6.8-1.5c0 0-2.1-17.5-2.1-18zM17.2 4.2l-2.7.8c.3-1 .7-2.1 1.5-2.8.3-.3.7-.4 1.1-.5.3.6.2 1.5.1 2.5zM15 2.2c.4 0 .7.1 1 .4-.8.4-1.5 1.3-2 2.7l-2.1.7C12.4 4.1 13.4 2.2 15 2.2zM14.7 10.5c0 0-1-.5-2.1-.5-1.7 0-1.8 1.1-1.8 1.3 0 1.5 3.8 2 3.8 5.5 0 2.7-1.7 4.4-4 4.4-2.8 0-4.2-1.7-4.2-1.7l.7-2.4s1.5 1.3 2.7 1.3c.8 0 1.2-.6 1.2-1.1 0-1.9-3.1-2-3.1-5.2 0-2.7 1.9-5.2 5.8-5.2 1.5 0 2.2.4 2.2.4l-1.2 3.2z" fill="#95BF47"/>
  <path d="M22.3 5.2c-.1-.5-.5-.8-1-.8h-.1l-1.6.1s-.4-2.7-2.4-2.7c0 0 0 0 0 0L16.4 24.7l6.8-1.5c0 0-2.1-17.5-2.1-18l1.2 0z" fill="#5E8E3E"/>
</svg>
